# Blender v3.0.1 OBJ File: 'ground space.blend'
# www.blender.org
mtllib ground space.mtl
o Plane
v -328.429230 0.000000 328.429230
v 328.429230 0.000000 328.429230
v -328.429230 0.000000 -328.429230
v 328.429230 0.000000 -328.429230
v -328.429230 -0.328429 328.429230
v 328.429230 -0.328429 328.429230
v -328.429230 -0.328429 -328.429230
v 328.429230 -0.328429 -328.429230
vt 1.000000 0.000000
vt 0.000000 1.000000
vt 0.000000 0.000000
vt 0.000000 1.000000
vt 1.000000 0.000000
vt 0.000000 0.000000
vt 1.000000 1.000000
vt 1.000000 1.000000
vn 0.0000 1.0000 0.0000
vn 0.0000 -1.0000 0.0000
vn -1.0000 0.0000 0.0000
vn 0.0000 0.0000 1.0000
vn 1.0000 0.0000 0.0000
vn 0.0000 0.0000 -1.0000
usemtl None
s off
f 2/1/1 3/2/1 1/3/1
f 7/4/2 6/5/2 5/6/2
f 3/2/3 5/6/3 1/3/3
f 1/3/4 6/5/4 2/1/4
f 2/1/5 8/7/5 4/8/5
f 4/8/6 7/4/6 3/2/6
f 2/1/1 4/8/1 3/2/1
f 7/4/2 8/7/2 6/5/2
f 3/2/3 7/4/3 5/6/3
f 1/3/4 5/6/4 6/5/4
f 2/1/5 6/5/5 8/7/5
f 4/8/6 8/7/6 7/4/6
